<?xml version="1.0" encoding="UTF-8"?>
<svg id="Layer_1" data-name="Layer 1" xmlns="http://www.w3.org/2000/svg" viewBox="0 0 416 512">
  <defs>
    <style>
      .cls-1 {
        fill: #a4c3b2;
      }

      .cls-1, .cls-2 {
        stroke-width: 0px;
      }

      .cls-2 {
        fill: #cce3de;
      }
    </style>
  </defs>
  <path class="cls-1" d="m160,0c-17.7,0-32,14.3-32,32s14.3,32,32,32h16v34.4C76.3,113.8,0,200,0,304c0,114.9,93.1,208,208,208s208-93.1,208-208c0-41.8-12.3-80.7-33.5-113.2l24.1-24.1c12.5-12.5,12.5-32.8,0-45.3s-32.8-12.5-45.3,0l-21.6,21.6c-28.1-23-62.2-38.8-99.7-44.6v-34.4h16c17.7,0,32-14.3,32-32S273.7,0,256,0h-96Zm72,192v128c0,13.3-10.7,24-24,24s-24-10.7-24-24v-128c0-13.3,10.7-24,24-24s24,10.7,24,24Z"/>
  <rect class="cls-1" x="168" y="155.89" width="88" height="198"/>
  <path class="cls-2" d="m302.87,288.02l6.22-6.12-18.66-18.36-34.19-33.63-18.66-18.36-6.22,6.12-12.44,12.24-109.66,107.88c-5.73,5.63-9.91,12.62-12.22,20.25l-19.49,65.2c-1.38,4.55-.11,9.48,3.36,12.84,3.47,3.36,8.42,4.6,13.05,3.3l66.23-19.17c7.76-2.27,14.86-6.39,20.59-12.02l109.66-107.88,12.44-12.29Zm-137.79,91.2l-5.01,12.29c-2.2,1.68-4.68,2.92-7.32,3.74l-43.05,12.46,12.66-42.3c.77-2.65,2.09-5.09,3.8-7.2l12.5-4.93v17.33c0,4.77,3.96,8.67,8.81,8.67h17.62v-.05Zm111.59-206.17l-7.93,7.85-12.44,12.24-6.28,6.12,18.66,18.36,34.19,33.63,18.66,18.36,6.22-6.12,12.44-12.24,7.98-7.85c13.76-13.54,13.76-35.47,0-49.01l-21.63-21.34c-13.76-13.54-36.06-13.54-49.82,0h-.06Zm-26.09,90.98l-79.27,77.99c-3.41,3.36-9.03,3.36-12.44,0s-3.41-8.88,0-12.24l79.27-77.99c3.41-3.36,9.03-3.36,12.44,0,3.41,3.36,3.41,8.88,0,12.24h0Z"/>
</svg>