<?xml version="1.0" encoding="UTF-8"?>
<svg id="Layer_1" data-name="Layer 1" xmlns="http://www.w3.org/2000/svg" viewBox="0 0 384 512">
  <defs>
    <style>
      .cls-1 {
        fill: #6b9080;
      }

      .cls-1, .cls-2 {
        stroke-width: 0px;
      }

      .cls-2 {
        fill: #a4c3b2;
      }
    </style>
  </defs>
  <path class="cls-1" d="m280,64h40c35.3,0,64,28.7,64,64v320c0,35.3-28.7,64-64,64H64c-35.3,0-64-28.7-64-64V128c0-35.3,28.7-64,64-64h49.6C121,27.5,153.3,0,192,0s71,27.5,78.4,64h9.6Zm-216,48c-8.8,0-16,7.2-16,16v320c0,8.8,7.2,16,16,16h256c8.8,0,16-7.2,16-16V128c0-8.8-7.2-16-16-16h-16v24c0,13.3-10.7,24-24,24H104c-13.3,0-24-10.7-24-24v-24h-16Zm128-8c13.25,0,24-10.75,24-24s-10.75-24-24-24-24,10.75-24,24,10.75,24,24,24Z"/>
  <path class="cls-2" d="m289,236.14l2.89-2.77-8.68-8.31-15.89-15.22-8.68-8.31-2.89,2.77-5.78,5.54-50.98,48.83c-2.66,2.55-4.61,5.71-5.68,9.17l-9.06,29.52c-.64,2.06-.05,4.29,1.56,5.81,1.61,1.52,3.92,2.08,6.07,1.5l30.79-8.68c3.61-1.03,6.91-2.89,9.57-5.44l50.98-48.83,5.78-5.56Zm-64.06,41.28l-2.33,5.56c-1.02.76-2.18,1.32-3.4,1.69l-20.01,5.64,5.89-19.15c.36-1.2.97-2.3,1.77-3.26l5.81-2.23v7.84c0,2.16,1.84,3.92,4.09,3.92h8.19v-.02Zm51.88-93.33l-3.69,3.55-5.78,5.54-2.92,2.77,8.68,8.31,15.89,15.22,8.68,8.31,2.89-2.77,5.78-5.54,3.71-3.55c6.4-6.13,6.4-16.06,0-22.19l-10.06-9.66c-6.4-6.13-16.76-6.13-23.16,0h-.03Zm-12.13,41.18l-36.85,35.3c-1.59,1.52-4.2,1.52-5.78,0s-1.59-4.02,0-5.54l36.85-35.3c1.59-1.52,4.2-1.52,5.78,0s1.59,4.02,0,5.54h0Z"/>
</svg>